<?xml version="1.0" standalone="no"?>
<!DOCTYPE svg PUBLIC "-//W3C//DTD SVG 20010904//EN"
 "http://www.w3.org/TR/2001/REC-SVG-20010904/DTD/svg10.dtd">
<svg version="1.0" xmlns="http://www.w3.org/2000/svg"
 width="417.000000pt" height="384.000000pt" viewBox="0 0 417.000000 384.000000"
 preserveAspectRatio="xMidYMid meet">

<g transform="translate(0.000000,384.000000) scale(0.100000,-0.100000)"
fill="#000000" stroke="none">
<path d="M2625 3459 c-66 -5 -208 -20 -315 -33 -107 -14 -249 -30 -315 -36
-286 -25 -622 -62 -642 -71 -16 -6 -23 -17 -23 -34 0 -23 85 -181 212 -394
l50 -84 -8 -66 c-16 -118 -10 -239 16 -324 13 -43 27 -80 32 -83 4 -3 8 -14 8
-25 0 -15 -7 -19 -37 -20 -143 -2 -275 -10 -322 -19 -30 -5 -92 -10 -138 -10
-55 0 -83 -4 -83 -11 0 -7 -7 -17 -15 -23 -12 -9 -13 -36 -5 -181 6 -93 14
-294 20 -445 19 -541 40 -827 64 -885 7 -16 20 -36 30 -44 16 -14 113 -51 188
-73 22 -6 35 -15 31 -21 -3 -6 -1 -7 5 -3 16 9 83 -4 76 -15 -3 -5 2 -6 11 -3
20 8 186 -36 179 -47 -5 -8 57 -23 88 -21 10 0 20 -3 23 -8 3 -4 14 -6 25 -3
11 3 27 0 35 -7 9 -7 32 -15 52 -17 20 -2 44 -9 52 -16 12 -10 13 -9 6 3 -7
12 -3 11 18 -3 15 -9 27 -15 27 -11 0 4 6 2 13 -4 7 -6 29 -12 48 -13 19 -2
39 -6 45 -11 7 -5 16 -8 20 -7 5 2 20 -2 34 -9 14 -6 86 -26 160 -44 101 -25
154 -33 212 -32 80 1 74 -2 168 72 17 13 30 33 30 43 0 11 5 17 10 14 6 -3 10
-2 10 4 0 5 -4 13 -10 16 -5 3 -10 12 -10 18 0 7 7 4 15 -7 13 -18 16 -17 56
12 35 26 89 90 89 105 0 3 18 34 39 69 37 61 39 68 35 129 -5 68 -22 147 -34
154 -4 2 -1 -19 6 -47 15 -56 14 -170 -1 -175 -6 -1 -26 34 -45 80 -35 81 -35
84 -40 262 -5 166 -3 184 16 233 28 69 31 71 39 26 11 -66 14 -70 53 -83 48
-15 192 -27 192 -15 1 5 5 43 10 84 12 96 31 791 23 849 -5 35 -15 54 -48 85
-35 35 -43 49 -49 96 -8 57 -17 105 -91 450 -25 118 -65 313 -90 432 -24 119
-49 226 -55 237 -12 23 -6 23 -195 10z m-465 -83 c0 -3 -4 -8 -10 -11 -5 -3
-10 -1 -10 4 0 6 5 11 10 11 6 0 10 -2 10 -4z m-57 -273 c-7 -2 -19 -2 -25 0
-7 3 -2 5 12 5 14 0 19 -2 13 -5z m49 -21 c10 -4 -26 -7 -80 -7 -108 0 -167
-19 -249 -82 -24 -19 -49 -31 -55 -27 -7 5 -8 2 -3 -5 4 -8 -5 -27 -23 -50
-39 -48 -78 -127 -93 -185 -13 -52 -29 -70 -29 -33 0 37 37 135 72 191 39 63
134 160 147 151 6 -3 25 2 43 11 18 10 51 23 73 30 43 13 168 17 197 6z m259
-80 c56 -60 116 -169 125 -225 l4 -32 -14 35 c-41 107 -97 194 -155 247 -20
18 -31 32 -25 33 7 0 36 -26 65 -58z m149 -305 c0 -18 -2 -19 -10 -7 -13 20
-13 43 0 35 6 -3 10 -16 10 -28z m-207 -137 c-3 -12 -8 -19 -11 -16 -5 6 5 36
12 36 2 0 2 -9 -1 -20z m-699 -90 c18 -72 70 -165 125 -223 l36 -39 -29 4
c-16 2 -34 12 -40 23 -6 10 -17 26 -24 33 -25 27 -45 63 -48 85 -5 33 -29 96
-42 109 -7 7 -12 30 -12 52 0 54 14 36 34 -44z m887 -47 c-12 -20 -14 -14 -5
12 4 9 9 14 11 11 3 -2 0 -13 -6 -23z m509 -195 c0 -5 0 -24 0 -43 0 -38 -23
-60 -76 -71 -30 -6 -30 -6 -33 44 -2 46 0 50 31 66 33 16 79 18 78 4z m-690
-8 c0 -12 -34 -30 -57 -30 -15 0 -14 4 7 20 27 21 50 26 50 10z m650 -159 c0
-11 -4 -22 -9 -25 -11 -7 -23 22 -15 35 9 16 24 10 24 -10z m-1359 -17 c-18
-8 -38 -13 -45 -11 -6 3 5 9 24 15 50 15 60 13 21 -4z m1283 -105 c-18 -79
-13 -85 10 -13 10 31 19 54 21 52 5 -5 -37 -172 -69 -278 -20 -63 -25 -96 -20
-131 4 -30 2 -49 -5 -53 -7 -5 -11 1 -11 14 0 16 -5 20 -15 16 -9 -3 -15 0
-15 8 0 8 5 16 10 18 6 2 15 30 20 63 5 33 15 82 24 108 8 27 12 56 9 65 -4
10 -2 13 5 8 8 -4 10 -2 6 7 -9 25 25 177 40 177 2 0 -2 -28 -10 -61z m-974
31 c13 -9 13 -10 0 -10 -8 0 -22 5 -30 10 -13 9 -13 10 0 10 8 0 22 -5 30 -10z
m90 -35 c11 -13 10 -14 -4 -9 -9 3 -16 10 -16 15 0 13 6 11 20 -6z m199 -200
c24 -26 41 -54 41 -67 -1 -19 -9 -14 -55 37 -30 33 -55 63 -55 68 0 20 32 2
69 -38z m-819 -10 c41 -3 78 -9 83 -14 5 -5 15 -7 22 -4 7 2 16 -5 20 -16 3
-12 14 -21 24 -21 10 0 33 -3 50 -6 27 -6 31 -4 31 15 0 11 5 21 10 21 6 0 10
-3 10 -7 0 -5 36 -8 80 -8 89 0 109 -10 90 -45 -11 -21 -17 -22 -76 -17 -59 6
-64 5 -64 -13 0 -11 -4 -20 -10 -20 -5 0 -10 17 -10 37 0 29 -3 34 -12 25 -7
-7 -24 -12 -39 -12 -21 0 -29 -6 -32 -22 -3 -22 -4 -22 -15 5 -8 19 -19 27
-36 27 -13 0 -27 7 -30 17 -6 15 -8 15 -16 3 -6 -9 -5 -19 0 -24 14 -14 12
-26 -4 -26 -8 0 -18 9 -21 20 -4 14 -15 20 -35 20 -16 0 -35 3 -44 6 -12 4
-16 0 -16 -15 0 -12 -4 -21 -10 -21 -5 0 -10 18 -10 40 0 32 -4 40 -19 40 -10
0 -39 3 -65 6 -44 6 -46 6 -46 -18 0 -28 20 -38 78 -38 23 0 32 -4 29 -12 -4
-13 -41 -13 -99 -2 -26 5 -28 9 -28 51 l0 45 68 -5 c37 -4 101 -9 142 -12z
m569 -61 c42 -9 39 -24 -4 -24 -34 0 -35 -1 -35 -40 0 -54 -17 -51 -26 5 -6
41 -9 45 -35 45 -16 0 -29 5 -29 10 0 11 80 13 129 4z m211 -29 c16 -10 12
-92 -4 -98 -12 -5 -146 9 -152 16 -1 1 -5 18 -9 38 -10 56 8 67 89 58 37 -5
71 -11 76 -14z m-760 -60 c22 -13 23 -14 5 -14 -11 0 -36 7 -55 14 l-35 13 30
1 c17 0 41 -6 55 -14z m-75 -55 c44 -6 106 -12 137 -13 l58 -2 0 -32 c0 -18
-5 -33 -10 -33 -23 0 -305 42 -309 46 -13 13 20 12 149 -6 78 -11 145 -18 147
-16 15 15 -22 25 -144 41 -76 10 -142 22 -148 27 -6 6 -1 8 15 4 14 -3 61 -10
105 -16z m1010 -85 c5 -32 4 -46 -2 -40 -13 13 -33 86 -33 116 l1 24 13 -25
c8 -14 17 -48 21 -75z m-411 5 c82 -12 155 -19 163 -16 9 4 13 -5 13 -34 l0
-38 -32 8 c-18 5 -98 16 -178 26 -80 9 -149 21 -154 25 -6 5 3 9 20 9 31 0
226 -25 277 -36 20 -4 27 -2 27 9 0 17 -10 19 -197 43 -73 9 -133 21 -133 26
0 4 10 6 23 3 12 -2 89 -14 171 -25z m886 0 c0 -22 -17 -35 -23 -18 -6 19 4
49 14 42 5 -3 9 -14 9 -24z m-1626 -27 c3 -21 6 -80 6 -130 0 -82 -2 -93 -17
-93 -27 0 -50 18 -37 28 6 4 14 52 17 110 5 99 4 104 -16 112 -20 8 -19 9 9 9
29 1 32 -2 38 -36z m527 -290 c-2 -18 -10 -23 -32 -23 -32 0 -48 17 -25 26 13
5 16 26 16 120 0 101 -2 114 -17 115 -10 1 -2 4 17 8 l35 6 5 -115 c3 -63 3
-125 1 -137z m602 145 c20 -13 37 -9 37 8 0 30 27 -4 40 -50 11 -41 9 -51 -49
-225 -33 -100 -64 -188 -68 -195 -5 -8 -51 -47 -103 -87 -52 -39 -112 -86
-133 -104 -37 -32 -38 -32 -179 -39 -78 -4 -148 -11 -156 -15 -10 -6 10 -14
59 -26 67 -16 111 -35 82 -35 -16 0 -579 138 -623 153 -43 14 -65 31 -30 23
47 -11 345 -85 400 -100 30 -8 56 -13 58 -11 4 3 -55 37 -213 122 -78 42 -97
57 -146 122 -32 41 -57 82 -56 92 1 17 3 17 30 1 16 -9 47 -36 70 -60 59 -60
233 -173 290 -187 24 -6 87 10 87 22 0 13 -29 32 -35 23 -9 -14 -26 -12 -24 3
3 20 -22 75 -37 81 -22 8 -17 28 15 63 16 18 26 35 22 39 -3 3 4 3 17 0 14 -5
22 -3 22 4 0 6 -6 8 -12 4 -8 -4 -10 -3 -5 2 9 9 13 10 43 13 21 1 7 21 -16
21 -17 0 -37 17 -29 25 8 7 144 -24 147 -34 6 -18 22 -13 22 7 0 11 3 13 8 6
4 -7 34 -17 67 -24 33 -7 68 -16 78 -21 13 -7 17 -6 17 6 0 8 9 15 20 15 11 0
20 -3 20 -7 0 -5 12 -8 28 -9 15 0 50 -4 77 -8 81 -11 87 -1 88 141 0 65 -3
155 -8 201 -5 59 -4 82 4 82 6 0 11 12 11 28 0 25 2 24 26 -18 14 -25 31 -48
37 -52z m-408 -37 c34 -7 35 -9 10 -9 -16 0 -43 4 -60 8 -42 11 -1 11 50 1z
m113 -18 c-10 -2 -28 -2 -40 0 -13 2 -5 4 17 4 22 1 32 -1 23 -4z m83 -15 c3
-22 -3 -273 -6 -276 -2 -3 -273 47 -343 63 -13 3 -21 9 -18 14 3 4 56 -3 118
-15 62 -12 134 -25 161 -29 l47 -7 0 115 c0 83 -4 117 -12 120 -7 3 -4 6 7 6
17 1 17 3 5 11 -12 8 -9 10 13 10 15 0 28 -6 28 -12z m-138 -20 c42 -6 74 -15
70 -19 -11 -9 -203 23 -203 34 0 5 12 6 28 3 15 -3 62 -11 105 -18z m50 15
c-7 -2 -19 -2 -25 0 -7 3 -2 5 12 5 14 0 19 -2 13 -5z m-724 -59 c9 -8 -45 -2
-64 6 -14 7 -8 8 20 3 22 -3 42 -7 44 -9z m54 -11 c-7 -2 -21 -2 -30 0 -10 3
-4 5 12 5 17 0 24 -2 18 -5z m87 -13 l25 -8 -25 0 c-14 0 -36 4 -50 8 l-25 8
25 0 c14 0 36 -4 50 -8z m-63 -32 c99 -19 115 -20 123 -8 7 11 4 17 -13 22
-16 5 -11 6 16 5 35 -1 37 -3 37 -34 0 -18 -3 -33 -7 -33 -20 0 -306 59 -311
64 -11 11 43 6 155 -16z m526 -54 c76 -15 136 -29 133 -31 -5 -6 -225 34 -266
47 -45 15 -8 10 133 -16z m-443 -26 c10 -5 -8 -6 -48 -2 -63 6 -64 6 -60 -17
2 -19 11 -25 47 -31 53 -9 67 -3 20 9 -18 5 -34 14 -36 20 -5 15 66 -3 86 -22
23 -22 6 -48 -27 -41 -106 26 -102 23 -102 67 l0 41 53 -7 c28 -4 59 -11 67
-17z m52 -45 l1 -38 4 38 c4 34 7 38 26 33 12 -3 41 -8 64 -12 24 -3 48 -13
54 -20 14 -17 9 -17 -64 0 -31 8 -55 11 -52 6 2 -4 32 -13 65 -19 43 -9 60
-16 60 -28 0 -11 -6 -14 -22 -9 -63 19 -89 19 -102 1 -9 -12 -15 -14 -20 -7
-4 6 -13 9 -21 5 -12 -4 -15 5 -15 41 0 55 19 62 22 9z m175 -279 c-3 -3 -12
-4 -19 -1 -8 3 -5 6 6 6 11 1 17 -2 13 -5z m292 -198 c11 -13 7 -13 -26 -5
-59 16 -61 17 -22 18 21 1 42 -5 48 -13z m475 -25 c49 -54 -3 -112 -56 -64
-18 16 -25 63 -11 76 13 14 50 7 67 -12z"/>
<path d="M1405 1690 c29 -13 94 -13 75 0 -8 5 -33 9 -55 9 -31 0 -36 -2 -20
-9z"/>
<path d="M1710 1661 c0 -6 13 -11 29 -11 16 0 44 -3 62 -6 23 -5 31 -3 24 4
-15 15 -115 27 -115 13z"/>
<path d="M2070 1603 c0 -28 3 -31 46 -37 72 -9 74 -9 74 24 0 24 -4 30 -22 30
-13 0 -40 3 -60 6 -37 6 -38 6 -38 -23z"/>
<path d="M1865 891 c-3 -5 -2 -12 3 -15 5 -3 9 1 9 9 0 17 -3 19 -12 6z"/>
<path d="M1910 892 c0 -5 26 -14 58 -19 31 -6 65 -14 75 -18 10 -4 17 -3 17 3
0 6 -26 16 -57 22 -32 6 -66 14 -75 16 -10 3 -18 1 -18 -4z"/>
<path d="M1871 851 c-7 -5 -12 -14 -10 -20 2 -6 10 -2 17 9 14 22 13 23 -7 11z"/>
<path d="M1948 843 c6 -2 18 -2 25 0 6 3 1 5 -13 5 -14 0 -19 -2 -12 -5z"/>
<path d="M1998 833 c7 -3 16 -2 19 1 4 3 -2 6 -13 5 -11 0 -14 -3 -6 -6z"/>
<path d="M1877 817 c-3 -8 1 -14 9 -14 16 0 19 13 5 21 -5 3 -11 0 -14 -7z"/>
<path d="M3085 1062 c-5 -17 -15 -18 -103 -14 l-98 4 4 -35 c4 -34 6 -36 56
-46 88 -17 112 -17 119 2 2 6 2 1 0 -12 -2 -14 -18 -42 -35 -63 -16 -21 -28
-43 -26 -49 5 -14 59 69 81 121 20 49 30 110 18 110 -5 0 -12 -8 -16 -18z"/>
</g>
</svg>
